<?xml version="1.0" encoding="UTF-8"?>
<svg id="Layer_1" xmlns="http://www.w3.org/2000/svg" version="1.1" viewBox="0 0 182 60">
  <!-- Generator: Adobe Illustrator 29.6.1, SVG Export Plug-In . SVG Version: 2.1.1 Build 9)  -->
  <g>
    <path d="M66.529,16.403h12.314v3.035h-9.314v5.546h9.314v3h-9.279v10.639h-3.035v-22.22Z" fill="#232026"/>
    <path d="M82.174,16.403h12.314v3.035h-9.314v5.546h9.314v3h-9.314v7.639h9.314v3h-12.314v-22.22Z" fill="#232026"/>
    <path d="M97.889,15.514l16.43,16.888v-15.998h3.035v23.249l-16.43-16.813v15.784h-3.035V15.514Z" fill="#232026"/>
    <path d="M121.714,15.514l16.43,16.888v-15.998h3.035v23.249l-16.43-16.813v15.784h-3.035V15.514Z" fill="#232026"/>
    <path d="M145.469,16.403h12.314v3.035h-9.314v5.546h9.314v3h-9.314v7.639h9.314v3h-12.314v-22.22Z" fill="#232026"/>
    <path d="M179.323,17.171v3.436c-2.395-1.174-4.599-1.762-6.61-1.762-2.581,0-4.756.834-6.523,2.5-1.768,1.667-2.651,3.714-2.651,6.142,0,2.474.904,4.539,2.712,6.194,1.808,1.655,4.073,2.483,6.793,2.483,1.977,0,4.07-.622,6.279-1.866v3.471c-2.012,1.07-4.192,1.605-6.541,1.605-3.442,0-6.384-1.165-8.825-3.494-2.442-2.329-3.663-5.139-3.663-8.427,0-3.23,1.2-5.995,3.602-8.296,2.401-2.301,5.293-3.451,8.677-3.451,2.174,0,4.424.488,6.75,1.465Z" fill="#232026"/>
  </g>
  <g>
    <path d="M76.502,47.209l-4.839,10.791h-.145l-4.819-10.791h1.272l3.612,8.233,3.626-8.233h1.292Z"/>
    <path d="M82.496,47.209h1.2v10.626h-1.2v-10.626Z"/>
    <path d="M89.98,55.937l.923-.679c.481.909,1.569,1.516,2.696,1.516,1.392,0,2.524-.751,2.524-1.8,0-1.192-1.522-1.766-2.88-2.28-1.306-.508-2.762-1.147-2.762-2.788s1.47-2.854,3.335-2.854c1.575,0,2.65.863,3.045,1.911l-.902.607c-.343-.798-1.2-1.339-2.156-1.339-1.14,0-2.115.752-2.115,1.701,0,1.028,1.166,1.403,2.537,1.931,1.596.646,3.105,1.385,3.105,3.092,0,1.833-1.694,3.025-3.738,3.025-1.746,0-3.104-.909-3.612-2.043Z"/>
    <path d="M103.609,47.209h1.199v10.626h-1.199v-10.626Z"/>
    <path d="M111.206,52.528c0-3.012,2.458-5.471,5.458-5.471s5.465,2.459,5.465,5.471c0,2.993-2.459,5.445-5.472,5.445-2.993,0-5.451-2.452-5.451-5.445ZM120.916,52.522c0-2.341-1.912-4.259-4.259-4.259-2.333,0-4.238,1.918-4.238,4.259s1.905,4.238,4.238,4.238c2.347,0,4.259-1.905,4.259-4.238Z"/>
    <path d="M137.059,47.183v10.817h-.06l-7.284-8.089v7.938h-1.199v-10.805h.065l7.277,8.082v-7.943h1.2Z"/>
    <path d="M150.936,56.088h-5.801l-.778,1.747h-1.298l4.91-10.791h.132l4.918,10.791h-1.306l-.777-1.747ZM150.474,55.047l-2.433-5.465-2.438,5.465h4.871Z"/>
    <path d="M165.168,57.835l-2.967-4.146h-1.983v4.146h-1.2l-.006-10.626h3.137c1.972,0,3.58,1.517,3.58,3.388,0,1.378-.943,2.564-2.234,2.953l3.157,4.285h-1.483ZM162.188,52.681c1.266,0,2.308-.963,2.308-2.109,0-1.227-1.055-2.176-2.308-2.176h-1.978v4.278l1.978.007Z"/>
    <path d="M174.21,53.319l-3.751-6.11h1.346l3.006,4.772,3.006-4.772h1.351l-3.764,6.11v4.516h-1.193v-4.516Z"/>
  </g>
  <g>
    <g>
      <g>
        <rect x="17.918" y="56.201" width="25.303" height=".483" fill="#232026"/>
        <path d="M30.57,56.657c-3.562,0-6.912-1.245-9.433-3.507-2.528-2.268-3.921-5.285-3.921-8.496h.484c0,6.352,5.774,11.519,12.87,11.519s12.87-5.168,12.87-11.519h.483c0,3.211-1.392,6.229-3.921,8.496-2.521,2.261-5.871,3.507-9.433,3.507Z" fill="#232026"/>
      </g>
      <g>
        <path d="M43.802,55.069h0c-.736,0-1.332.596-1.332,1.332v.083c0,.736.596,1.332,1.332,1.332h0c.736,0,1.332-.596,1.332-1.332v-.083c0-.736-.596-1.332-1.332-1.332Z" fill="#f24f13"/>
        <rect x="29.133" y="54.886" width="3.114" height="3.114" rx=".849" ry=".849" transform="translate(61.381 112.886) rotate(-180)" fill="#f24f13"/>
        <path d="M17.578,55.069h0c-.736,0-1.332.596-1.332,1.332v.083c0,.736.596,1.332,1.332,1.332h0c.736,0,1.332-.596,1.332-1.332v-.083c0-.736-.596-1.332-1.332-1.332Z" fill="#f24f13"/>
      </g>
      <g>
        <rect x="42.44" y="42.875" width="2.725" height="2.725" transform="translate(87.604 88.474) rotate(180)" fill="#f24f13"/>
        <rect x="16.216" y="42.875" width="2.725" height="2.725" transform="translate(35.157 88.474) rotate(180)" fill="#f24f13"/>
      </g>
    </g>
    <g>
      <path d="M58.54,2s-17.509,12.96-17.096,16.269c.407,3.26-3.065-2.445-.664,10.434.072.384-.003.781-.209,1.112l-9.88,15.861-9.88-15.86c-.206-.331-.281-.728-.209-1.112,2.401-12.879-1.072-7.174-.664-10.434C20.35,14.96,2.841,2,2.841,2c-1.4,16.37,6.538,23.065,10.08,25.212-4.092-3.389-6.019-15.111-6.316-17.073-.012-.079.087-.122.138-.061l6.577,8.053c9.375,7.031,1.517,15.993,1.517,15.993,10.746,4.546,15.847,15.563,15.855,15.579h0s0,0,0,0c0,0,0,0,0,0h0c.008-.018,5.11-11.033,15.855-15.579,0,0-7.859-8.961,1.517-15.993l6.577-8.053c.05-.062.15-.018.138.061-.297,1.962-2.225,13.685-6.316,17.073,3.541-2.146,11.48-8.841,10.08-25.212Z" fill="#f24f13"/>
      <path d="M23.77,19.625h13.84c.296,0,.557-.196.639-.48l1.289-4.46c.123-.425-.196-.85-.639-.85h-16.419c-.443,0-.762.425-.639.85l1.289,4.46c.082.285.343.48.639.48Z" fill="#f24f13"/>
    </g>
    <path d="M32.462,25.856c0-.978-.793-1.771-1.771-1.771s-1.771.793-1.771,1.771c0,.586.284,1.105.722,1.427l1.071,17.185,1.074-17.221c.411-.324.675-.827.675-1.391Z" fill="#232026"/>
  </g>
</svg>