<?xml version="1.0" encoding="UTF-8"?>
<svg id="Layer_1" data-name="Layer 1" xmlns="http://www.w3.org/2000/svg" xmlns:xlink="http://www.w3.org/1999/xlink" viewBox="0 0 176.65 56">
  <defs>
    <style>
      .cls-1 {
        fill: url(#linear-gradient-2);
      }

      .cls-2 {
        fill: #fff;
      }

      .cls-3 {
        fill: #f24f13;
      }

      .cls-4 {
        fill: url(#linear-gradient);
      }
    </style>
    <linearGradient id="linear-gradient" x1="28.01" y1="0" x2="28.01" y2="47.7" gradientUnits="userSpaceOnUse">
      <stop offset="0" stop-color="#ff643d"/>
      <stop offset="1" stop-color="#f24f13"/>
    </linearGradient>
    <linearGradient id="linear-gradient-2" x1="28.01" y1="11.83" x2="28.01" y2="17.63" xlink:href="#linear-gradient"/>
  </defs>
  <g>
    <path class="cls-2" d="M63.85,14.4h12.31v3.03h-9.31v5.55h9.31v3h-9.28v10.64h-3.03V14.4Z"/>
    <path class="cls-2" d="M79.5,14.4h12.31v3.03h-9.31v5.55h9.31v3h-9.31v7.64h9.31v3h-12.31V14.4Z"/>
    <path class="cls-2" d="M95.21,13.51l16.43,16.89v-16h3.03v23.25l-16.43-16.81v15.78h-3.03V13.51Z"/>
    <path class="cls-2" d="M119.04,13.51l16.43,16.89v-16h3.03v23.25l-16.43-16.81v15.78h-3.03V13.51Z"/>
    <path class="cls-2" d="M142.79,14.4h12.31v3.03h-9.31v5.55h9.31v3h-9.31v7.64h9.31v3h-12.31V14.4Z"/>
    <path class="cls-2" d="M176.65,15.17v3.44c-2.4-1.17-4.6-1.76-6.61-1.76-2.58,0-4.76.83-6.52,2.5-1.77,1.67-2.65,3.71-2.65,6.14s.9,4.54,2.71,6.19c1.81,1.66,4.07,2.48,6.79,2.48,1.98,0,4.07-.62,6.28-1.87v3.47c-2.01,1.07-4.19,1.6-6.54,1.6-3.44,0-6.38-1.16-8.83-3.49-2.44-2.33-3.66-5.14-3.66-8.43s1.2-6,3.6-8.3c2.4-2.3,5.29-3.45,8.68-3.45,2.17,0,4.42.49,6.75,1.47Z"/>
  </g>
  <g>
    <path class="cls-2" d="M73.82,45.21l-4.84,10.79h-.14l-4.82-10.79h1.27l3.61,8.23,3.63-8.23h1.29Z"/>
    <path class="cls-2" d="M79.82,45.21h1.2v10.63h-1.2v-10.63Z"/>
    <path class="cls-2" d="M87.3,53.94l.92-.68c.48.91,1.57,1.52,2.7,1.52,1.39,0,2.52-.75,2.52-1.8,0-1.19-1.52-1.77-2.88-2.28-1.31-.51-2.76-1.15-2.76-2.79s1.47-2.85,3.34-2.85c1.58,0,2.65.86,3.04,1.91l-.9.61c-.34-.8-1.2-1.34-2.16-1.34-1.14,0-2.12.75-2.12,1.7,0,1.03,1.17,1.4,2.54,1.93,1.6.65,3.11,1.38,3.11,3.09,0,1.83-1.69,3.03-3.74,3.03-1.75,0-3.1-.91-3.61-2.04Z"/>
    <path class="cls-2" d="M100.93,45.21h1.2v10.63h-1.2v-10.63Z"/>
    <path class="cls-2" d="M108.53,50.53c0-3.01,2.46-5.47,5.46-5.47s5.46,2.46,5.46,5.47-2.46,5.45-5.47,5.45-5.45-2.45-5.45-5.45ZM118.24,50.52c0-2.34-1.91-4.26-4.26-4.26s-4.24,1.92-4.24,4.26,1.91,4.24,4.24,4.24,4.26-1.91,4.26-4.24Z"/>
    <path class="cls-2" d="M134.38,45.18v10.82h-.06l-7.28-8.09v7.94h-1.2v-10.8h.07l7.28,8.08v-7.94h1.2Z"/>
    <path class="cls-2" d="M148.26,54.09h-5.8l-.78,1.75h-1.3l4.91-10.79h.13l4.92,10.79h-1.31l-.78-1.75ZM147.8,53.05l-2.43-5.46-2.44,5.46h4.87Z"/>
    <path class="cls-2" d="M162.49,55.83l-2.97-4.15h-1.98v4.15h-1.2v-10.63s3.13,0,3.13,0c1.97,0,3.58,1.52,3.58,3.39,0,1.38-.94,2.56-2.23,2.95l3.16,4.29h-1.48ZM159.51,50.68c1.27,0,2.31-.96,2.31-2.11,0-1.23-1.05-2.18-2.31-2.18h-1.98v4.28h1.98Z"/>
    <path class="cls-2" d="M171.53,51.32l-3.75-6.11h1.35l3.01,4.77,3.01-4.77h1.35l-3.76,6.11v4.52h-1.19v-4.52Z"/>
  </g>
  <g>
    <g>
      <g>
        <rect class="cls-2" x="15.24" y="54.2" width="25.3" height=".48"/>
        <path class="cls-2" d="M27.89,54.66c-3.56,0-6.91-1.25-9.43-3.51-2.53-2.27-3.92-5.29-3.92-8.5h.48c0,6.35,5.77,11.52,12.87,11.52s12.87-5.17,12.87-11.52h.48c0,3.21-1.39,6.23-3.92,8.5-2.52,2.26-5.87,3.51-9.43,3.51Z"/>
      </g>
      <g>
        <path class="cls-3" d="M41.13,53.07h0c-.74,0-1.33.6-1.33,1.33v.08c0,.74.6,1.33,1.33,1.33h0c.74,0,1.33-.6,1.33-1.33v-.08c0-.74-.6-1.33-1.33-1.33Z"/>
        <rect class="cls-3" x="26.46" y="52.89" width="3.11" height="3.11" rx=".85" ry=".85" transform="translate(56.03 108.89) rotate(-180)"/>
        <path class="cls-3" d="M14.9,53.07h0c-.74,0-1.33.6-1.33,1.33v.08c0,.74.6,1.33,1.33,1.33h0c.74,0,1.33-.6,1.33-1.33v-.08c0-.74-.6-1.33-1.33-1.33Z"/>
      </g>
      <g>
        <rect class="cls-3" x="39.76" y="40.87" width="2.72" height="2.72" transform="translate(82.25 84.47) rotate(180)"/>
        <rect class="cls-3" x="13.54" y="40.87" width="2.72" height="2.72" transform="translate(29.8 84.47) rotate(180)"/>
      </g>
    </g>
    <g>
      <path class="cls-4" d="M55.86,0s-17.51,12.96-17.1,16.27c.41,3.26-3.07-2.45-.66,10.43.07.38,0,.78-.21,1.11l-9.88,15.86-9.88-15.86c-.21-.33-.28-.73-.21-1.11,2.4-12.88-1.07-7.17-.66-10.43C17.67,12.96.16,0,.16,0c-1.4,16.37,6.54,23.07,10.08,25.21-4.09-3.39-6.02-15.11-6.32-17.07-.01-.08.09-.12.14-.06l6.58,8.05c9.38,7.03,1.52,15.99,1.52,15.99,10.75,4.55,15.85,15.56,15.85,15.58h0s0,0,0,0c0,0,0,0,0,0h0s5.11-11.03,15.85-15.58c0,0-7.86-8.96,1.52-15.99l6.58-8.05c.05-.06.15-.02.14.06-.3,1.96-2.22,13.68-6.32,17.07,3.54-2.15,11.48-8.84,10.08-25.21Z"/>
      <path class="cls-1" d="M21.09,17.63h13.84c.3,0,.56-.2.64-.48l1.29-4.46c.12-.43-.2-.85-.64-.85h-16.42c-.44,0-.76.42-.64.85l1.29,4.46c.08.28.34.48.64.48Z"/>
    </g>
    <path class="cls-2" d="M29.78,23.86c0-.98-.79-1.77-1.77-1.77s-1.77.79-1.77,1.77c0,.59.28,1.1.72,1.43l1.07,17.18,1.07-17.22c.41-.32.68-.83.68-1.39Z"/>
  </g>
</svg>
